<?xml version="1.0" standalone="no"?>
<!DOCTYPE svg PUBLIC "-//W3C//DTD SVG 20010904//EN"
 "http://www.w3.org/TR/2001/REC-SVG-20010904/DTD/svg10.dtd">
<svg version="1.0" xmlns="http://www.w3.org/2000/svg"
 width="440.000000pt" height="438.000000pt" viewBox="0 0 440.000000 438.000000"
 preserveAspectRatio="xMidYMid meet">

<g transform="translate(0.000000,438.000000) scale(0.100000,-0.100000)"
fill="#000000" stroke="none">
<path d="M1975 4354 c-752 -86 -1374 -516 -1714 -1183 -135 -265 -211 -544
-230 -843 -44 -706 255 -1386 803 -1827 399 -320 860 -481 1376 -481 723 2
1395 362 1799 965 430 642 481 1495 129 2188 -345 679 -1000 1119 -1768 1187
-146 13 -244 11 -395 -6z m746 -695 c277 -160 507 -296 511 -302 4 -7 7 -176
5 -376 l-2 -363 -527 -302 -527 -301 -1 -507 0 -508 -76 -42 c-42 -24 -95 -57
-118 -73 -22 -17 -203 -125 -401 -240 -198 -115 -370 -215 -382 -223 l-23 -14
0 128 0 129 393 220 392 220 3 1012 2 1012 -87 -50 c-49 -28 -94 -55 -100 -61
-10 -8 -13 -197 -13 -883 l0 -873 -281 -161 c-155 -89 -287 -161 -294 -161 -7
0 -15 10 -19 22 -7 29 -8 2356 0 2383 4 14 163 111 512 312 279 161 512 293
518 293 7 0 238 -131 515 -291z"/>
<path d="M1839 3504 c-206 -118 -391 -226 -411 -240 l-38 -24 0 -960 c0 -847
2 -961 15 -966 8 -4 46 12 85 35 l70 42 2 877 3 877 315 182 c173 100 320 182
325 183 6 0 163 -88 350 -195 186 -107 346 -195 354 -195 9 1 41 16 71 34 72
43 79 74 23 109 -27 17 -720 418 -784 453 -3 2 -174 -94 -380 -212z"/>
<path d="M2185 3257 c-3 -7 -4 -134 -3 -283 l3 -271 235 136 c182 105 235 141
235 156 0 15 -50 49 -220 147 -121 71 -226 128 -233 128 -7 0 -15 -6 -17 -13z"/>
<path d="M2598 2697 l-418 -240 0 -100 c0 -90 2 -99 18 -92 9 3 200 112 425
242 l407 236 0 98 c0 55 -3 99 -7 98 -5 0 -196 -109 -425 -242z"/>
</g>
</svg>
